<svg width="1924" height="1083" viewBox="0 0 1924 1083" fill="none" xmlns="http://www.w3.org/2000/svg">
<path d="M380.5 1012.5C378.5 1030.5 310.667 1065 277 1080H422C463.2 1080 476.833 1064.33 478.5 1056.5C487.3 1049.3 482.167 1024.17 478.5 1012.5C466.167 990.333 423.4 947.4 351 953C260.5 960 283.5 964 250 975.5C223.2 984.7 196.5 1015.33 186.5 1029.5C177.167 1046.33 164.1 1080 186.5 1080C208.9 1080 225.167 1046.33 230.5 1029.5C257.5 1002.5 247.5 1012.5 283.5 992.5C312.3 976.5 345.833 978.833 359 982C367 984.667 382.5 994.5 380.5 1012.5Z" fill="#BABD8D" stroke="#BABD8D"/>
<path d="M228.5 920C143.7 959.6 115.833 1044.83 112.5 1082.5H136C135.2 1066.5 145.333 1040.5 150.5 1029.5C180.9 975.5 245.167 941.667 273.5 931.5C306.5 921.333 392.6 910.2 473 947C553.4 983.8 549.167 1052.67 537 1082.5H582V1029.5C556.4 933.1 470 903.667 430 901C398.167 890.833 313.3 880.4 228.5 920Z" fill="#BABD8D" stroke="#BABD8D"/>
<path d="M1605.5 1012.5C1546 1009 1504 1072.5 1497.5 1080H1535.5L1550 1064.5C1573.67 1047.6 1626.7 1019.43 1649.5 1042C1672.3 1064.57 1640 1076.74 1621 1080H1667.5C1688.3 1065.6 1676.17 1041 1667.5 1030.5C1666.67 1025.67 1653.1 1015.3 1605.5 1012.5Z" fill="#BABD8D" stroke="#BABD8D"/>
<path d="M1742 1022.5C1738 981.7 1858.33 920.833 1919 895.5V850.5C1906 861.833 1874.5 886.7 1852.5 895.5C1830.5 904.3 1801 918.167 1789 924C1776.5 931.333 1747.3 950.3 1730.5 967.5C1713.7 984.7 1698.83 985.667 1693.5 984C1688.17 982.333 1672.8 976.7 1654 967.5C1635.2 958.3 1613.5 956 1605 956C1584.67 955 1535.2 962.9 1500 1002.5C1464.8 1042.1 1457.67 1069.33 1458.5 1078C1470.1 1039.2 1514.33 1001.83 1535 988C1562.17 974.833 1627 956.4 1669 988C1711 1019.6 1708.83 1063.17 1702.5 1081H1730.5L1742 1022.5Z" fill="#BABD8D" stroke="#BABD8D"/>
<path d="M1824 278.5C1817.6 222.1 1884.67 197.333 1919 192V229.5C1903 234.167 1870.9 249 1870.5 271C1870.1 293 1902.67 296.5 1919 295.5V327.5C1890 334.667 1830.4 334.9 1824 278.5Z" fill="#BABD8D" stroke="#BABD8D"/>
<path d="M232.453 99.5271C220.316 53.87 233.657 15.4852 241.845 2.00001H336.482C339.95 8.35733 335.037 18.1341 332.147 22.2279C315.965 51.7027 307.103 86.0419 304.695 99.5271C301.806 117.828 296.749 164.256 299.638 203.556C302.528 242.856 286.876 289.284 278.688 307.585C257.738 345.392 204.134 430.541 157.321 468.685C110.508 506.829 34.7499 518.292 2.72247 519.255V463.628C65.7178 460.739 112.772 434.009 128.424 421.005C141.669 410.169 174.226 382.572 198.499 358.877C222.773 335.181 240.881 294.581 246.901 277.243C250.947 268.574 253.885 237.028 254.848 222.339C253.162 200.426 244.59 145.184 232.453 99.5271Z" fill="#BABD8D" stroke="#BABD8D" stroke-width="3"/>
<path d="M105.307 260.627C110.508 205.723 130.11 189.108 139.26 187.663C158.332 187.663 163.1 221.376 163.1 238.232C156.165 296.604 136.13 313.124 126.979 314.087C117.588 319.144 100.105 315.532 105.307 260.627Z" fill="#BABD8D" stroke="#BABD8D" stroke-width="3"/>
<path d="M97.3598 104.584C112.964 86.09 130.832 78.5768 137.815 77.132C147.929 77.132 170.614 80.4551 180.438 93.7477C190.263 107.04 200.907 143.113 205.001 159.488C212.707 183.81 220.316 245.457 189.108 297.471C157.899 349.485 127.942 364.416 116.865 365.379C102.417 366.583 71.6415 358.01 64.1283 314.087C56.6151 270.163 60.9978 224.988 64.1283 207.891C68.7037 181.161 81.7555 123.078 97.3598 104.584Z" fill="#BABD8D" stroke="#BABD8D" stroke-width="3"/>
<path d="M32.3418 293.859C32.3418 276.521 13.5588 249.069 4.1673 237.51V369.713C18.6158 363.356 25.5992 346.355 27.2848 338.649C28.9705 330.943 32.3418 311.197 32.3418 293.859Z" fill="#BABD8D" stroke="#BABD8D" stroke-width="3"/>
<path d="M83.6338 32.3418C88.9316 27.7664 101.839 15.2926 111.086 2.00001H70.6302C44.623 26.8514 14.0404 51.3656 2 60.5163V113.253L16.4485 100.972L49.6799 69.1853L83.6338 32.3418Z" fill="#BABD8D" stroke="#BABD8D" stroke-width="3"/>
<path d="M1867 1036C1847.8 1044 1848.33 1069.33 1851 1081H1922.5C1920.1 1057.4 1914.83 1047.17 1912.5 1045C1905.33 1038.67 1886.2 1028 1867 1036Z" fill="#BABD8D" stroke="#BABD8D"/>
<path d="M1546 80.5C1546 31.3 1584.33 12 1603.5 8.5H1671C1655 26 1624.5 29.5 1603.5 36C1586.7 41.2 1579.17 55.5 1577.5 62C1563.5 104.8 1611.33 138.833 1637 150.5C1606.67 147.667 1546 129.7 1546 80.5Z" fill="#BABD8D" stroke="#BABD8D"/>
<path d="M1664 57C1692.4 34.2 1701.5 15.8333 1702.5 9.5H1727.5C1726.7 21.1 1722.17 30.6667 1720 34C1714.17 47.3333 1697.3 74.2 1676.5 75C1655.7 75.8 1659.5 63.3333 1664 57Z" fill="#BABD8D" stroke="#BABD8D"/>
<path d="M1711 93.5C1728.6 80.7 1749.67 31.8333 1758 9H1762C1763.5 5.83333 1765.6 5.8 1762 31C1758.4 56.2 1749.83 76.8333 1746 84C1743.33 91.6667 1732.3 109.8 1709.5 121C1686.7 132.2 1656.33 127.667 1644 124C1642.17 124 1634.6 120.6 1619 107C1603.4 93.4 1604.17 76.3333 1606.5 69.5C1616.9 53.5 1626.83 60.5 1630.5 66C1640.1 98 1658.17 106.667 1666 107C1673.67 107.833 1693.4 106.3 1711 93.5Z" fill="#BABD8D" stroke="#BABD8D"/>
<path d="M1869 525C1869 482.6 1902.33 458 1919 451V492C1896.2 522 1909.5 551.5 1919 562.5V605.5C1902.33 596.333 1869 567.4 1869 525Z" fill="#BABD8D" stroke="#BABD8D"/>
<path d="M1800.5 511C1801.3 447.8 1881.5 399.667 1921.5 383.5V422L1880.5 448C1865.17 457.333 1835.5 487.6 1839.5 534C1843.5 580.4 1896.5 632.667 1922.5 653V798.5L1916 808.5C1906.17 817.667 1883.6 838.3 1872 847.5C1860.4 856.7 1786.17 890.667 1750.5 906.5C1733 915.833 1697.6 931.7 1696 920.5C1694.4 909.3 1703 902.833 1707.5 901C1727.83 889.833 1781.8 861.2 1835 836C1888.2 810.8 1911.17 773.833 1916 758.5C1917.17 742.333 1918.8 707.6 1916 698C1913.2 688.4 1900.83 668.667 1895 660L1858.5 623.5C1809.3 581.9 1799.33 531.167 1800.5 511Z" fill="#BABD8D" stroke="#BABD8D"/>
<path d="M1842.5 89C1840.5 74.5 1870.5 62 1921 55.5V77C1895.5 85.8333 1844.1 100.6 1842.5 89Z" fill="#BABD8D" stroke="#BABD8D"/>
<path d="M1853 8C1861.5 22.5 1886 42.8 1916 8H1853Z" fill="#BABD8D" stroke="#BABD8D"/>
<path d="M1773 206C1798.2 148.8 1881.83 121.833 1920.5 115.5V154.5C1900.1 156.5 1869.33 168.667 1856.5 174.5C1836.67 185 1795.2 215 1788 251C1780.8 287 1801.33 319 1812.5 330.5C1821 339.333 1836.9 360.5 1832.5 374.5C1828.1 388.5 1801 421.667 1788 436.5C1781.67 450.667 1769.1 485.8 1769.5 513C1770 547 1772 531.5 1778.5 561C1783.7 584.6 1808.67 615.833 1820.5 628.5C1841.17 645.667 1883.4 684.9 1887 704.5C1890.6 724.1 1888.5 737.333 1887 741.5C1883.5 749 1873 767.2 1859 780C1845 792.8 1779.83 829.333 1749 846C1742.83 849.667 1723.2 861.5 1694 879.5C1664.8 897.5 1669.17 936 1675 953C1647.4 910.2 1671.83 875.5 1687.5 863.5C1693.17 856.833 1715.8 837.1 1761 811.5C1806.2 785.9 1833.5 765.833 1841.5 759C1847 752.5 1859 735 1863 717C1867 699 1836.33 660.833 1820.5 644L1778.5 592C1776.67 588.5 1770.6 574.2 1761 545C1751.4 515.8 1768.67 460.5 1778.5 436.5C1780.67 428.667 1785.6 409.8 1788 397C1790.4 384.2 1779 354.667 1773 341.5C1762.5 320.167 1747.8 263.2 1773 206Z" fill="#BABD8D" stroke="#BABD8D"/>
<path d="M1820 985.5C1796.4 1010.7 1789.17 1059.67 1788.5 1081H1808.5C1814.9 1039.4 1830.5 1014.33 1837.5 1007C1842.17 1001.17 1856.8 988.7 1878 985.5C1899.2 982.3 1915.83 998.5 1921.5 1007V973C1910.3 963 1896.17 960.5 1890.5 960.5C1876.83 958.333 1843.6 960.3 1820 985.5Z" fill="#BABD8D" stroke="#BABD8D"/>
<path d="M156.5 844.5C179.3 831.7 187 786.833 188 766C193.6 810.4 209 820.5 216 820C275.6 829.2 288.833 834.167 288 835.5H227C211.667 832.833 165.2 841.7 102 898.5C38.8 955.3 43.3333 1044.83 53.5 1082.5H35.4999C30.6999 1072.5 33.4999 1036.33 35.4999 1019.5C36.2999 963.9 75.8333 909 95.4999 888.5C106.333 879.167 133.7 857.3 156.5 844.5Z" fill="#BABD8D" stroke="#BABD8D"/>
<path d="M714 949C657.6 989.4 600.833 1033.17 579.5 1050V1081C595.833 1063.67 645.6 1020.2 714 985C782.4 949.8 794.833 888.667 792.5 862.5C812.1 834.9 784.333 739.667 768 695.5C771.925 609.5 811.302 570.333 830.5 561.5C856.167 548.333 915.7 513.2 948.5 478C981.3 442.8 988.5 376.333 988 347.5C979.5 309.667 955.8 227.3 929 200.5C902.2 173.7 897.5 189.333 898.5 200.5C966.5 275.7 960.167 376.5 948.5 417.5C928.833 453.333 870.1 530.5 792.5 552.5C714.9 574.5 707.833 636.667 714 665L759 770.5C767.5 813.167 770.4 908.6 714 949Z" fill="#BABD8D" stroke="#BABD8D"/>
</svg>
